<svg width="1024" height="1024" viewBox="0 0 1024 1024" fill="none" xmlns="http://www.w3.org/2000/svg">
<rect width="1024" height="1024" fill="#262832"/>
<path d="M484.569 212.798C449.71 216.948 412.914 229.536 383.587 247.104C344.163 270.897 310.134 307.555 289.522 348.362C278.456 370.495 268.772 401.482 265.452 426.243C263.516 440.214 263.516 476.457 265.452 490.429C269.187 518.095 280.254 552.678 292.842 575.918C328.808 642.593 388.567 688.104 461.053 703.736C482.909 708.577 497.711 717.984 504.627 731.54C507.256 736.935 510.714 751.045 512.789 765.016C516.109 788.671 529.665 803.473 553.735 809.698C565.355 812.602 755.145 812.879 757.635 809.836C758.742 808.591 759.157 793.651 758.88 757.685L758.465 707.332L660.942 706.917C607.408 706.779 563.003 706.087 562.45 705.534C561.897 704.981 570.335 701.799 581.125 698.479C600.768 692.531 603.949 691.286 620.826 683.263C682.106 654.351 732.044 594.316 750.857 526.672C757.359 503.432 759.434 487.385 759.434 461.102C759.434 433.851 757.912 420.295 752.102 398.162C740.344 353.896 718.488 315.716 687.086 284.73C659.143 257.202 631.892 239.772 595.926 226.631C571.165 217.501 545.85 212.798 517.769 212.106C504.904 211.829 489.964 212.106 484.569 212.798ZM545.02 321.249C578.635 328.719 611.004 350.852 630.647 379.625C649.599 407.292 659.143 447.684 654.164 479.777C645.864 533.588 610.451 577.162 560.652 595.284C543.913 601.232 531.74 603.307 513.619 603.445C495.359 603.445 481.664 601.232 465.895 595.699C407.795 575.503 369.754 521.277 370.031 459.028C370.169 403.142 402.539 353.066 453.445 329.964C466.586 324.016 471.981 322.218 484.431 319.866C496.742 317.515 532.017 318.206 545.02 321.249Z" fill="#03C481"/>
</svg>
