<svg width="496" height="600" viewBox="0 0 496 600" fill="none" xmlns="http://www.w3.org/2000/svg">
<path d="M220.569 0.797668C185.71 4.94763 148.914 17.5358 119.587 35.1039C80.163 58.8969 46.1335 95.5547 25.5221 136.362C14.4556 158.495 4.77243 189.482 1.45248 214.243C-0.48416 228.214 -0.48416 264.457 1.45248 278.429C5.18743 306.095 16.2539 340.678 28.8421 363.918C64.8082 430.593 124.567 476.104 197.053 491.736C218.909 496.577 233.711 505.984 240.627 519.54C243.256 524.935 246.714 539.045 248.789 553.016C252.109 576.671 265.665 591.473 289.735 597.698C301.355 600.602 491.145 600.879 493.635 597.836C494.742 596.591 495.157 581.651 494.88 545.685L494.465 495.332L396.942 494.917C343.408 494.779 299.003 494.087 298.45 493.534C297.897 492.981 306.335 489.799 317.125 486.479C336.768 480.531 339.949 479.286 356.826 471.263C418.106 442.351 468.044 382.316 486.857 314.672C493.359 291.432 495.434 275.385 495.434 249.102C495.434 221.851 493.912 208.295 488.102 186.162C476.344 141.896 454.488 103.716 423.086 72.73C395.143 45.202 367.892 27.7723 331.926 14.6308C307.165 5.50098 281.85 0.797668 253.769 0.106018C240.904 -0.170654 225.964 0.106018 220.569 0.797668ZM281.02 109.249C314.635 116.719 347.004 138.852 366.647 167.625C385.599 195.292 395.143 235.684 390.164 267.777C381.864 321.588 346.451 365.162 296.652 383.284C279.913 389.232 267.74 391.307 249.619 391.445C231.359 391.445 217.664 389.232 201.895 383.699C143.795 363.503 105.754 309.277 106.031 247.028C106.169 191.142 138.539 141.066 189.445 117.964C202.586 112.016 207.981 110.218 220.431 107.866C232.742 105.515 268.017 106.206 281.02 109.249Z" fill="#03C481"/>
</svg>
